# xmcd
#
# Track frame offsets:
#	150
#	9350
#	22297
#	30957
#	39877
#	51530
#	60364
#	69497
#	81065
#	92882
#	107537
#	119212
#	131097
#	139385
#	152735
#	165392
#	177272
#	191425
#	203509
#	215172
#	225690
#	240297
#
# Disc length: 3312 seconds
#
# Revision: 1
# Processed by: cddbd v1.5.2PL0 Copyright (c) Steve Scherf et al.
# Submitted via: audiograbber 1.83.01
#
DISCID=290cee16
DTITLE=Various Artist - Pow City!
DYEAR=1998
DGENRE=Soul
TTITLE0=Ditalians - I Gotta Go
TTITLE1=Little Richard - Soul Train
TTITLE2=Eddy G. Giles - Go Go Train
TTITLE3=Dottie Campbell - He's A Bout A Mover
TTITLE4=Roscoe Robinson - You Don't Move Me No More
TTITLE5=King Coleman - Do The Boocalao
TTITLE6=Milton Howard - The Funky Shing-A-Ling
TTITLE7=Cate Wesley and Band - Do The Bathman
TTITLE8=Lonnie Youngblood - Go Go Shoes
TTITLE9=Chet Poison Ivy - Poo Poo Man
TTITLE10=Freddy Scott - Pow City
TTITLE11=Soul Brothers Six - Wath You Got
TTITLE12=Johnny Jones and The King Casuals - It's Gonna Be Good
TTITLE13=Jesse Anderson - Get Loos When You Get Loos 
TTITLE14=Warren Lee - Under Dog Back Street
TTITLE15=Andre Williams - The Stroke
TTITLE16=Roy Hightower and Gant Green - False Advertising
TTITLE17=Jomo - Uhuru
TTITLE18=Willie Parker - You Got Your Finger In My Eye
TTITLE19=Tony Borders - Polly Wolly
TTITLE20=Interpretations  - Automatic Soul Part 2
TTITLE21=Lonnie Youngblood - Go Go Place
EXTD=POW -3-4007. Limited Edition. Made in Belgium.
EXTT0=
EXTT1=
EXTT2=
EXTT3=
EXTT4=
EXTT5=
EXTT6=
EXTT7=
EXTT8=
EXTT9=
EXTT10=
EXTT11=
EXTT12=
EXTT13=
EXTT14=
EXTT15=
EXTT16=
EXTT17=
EXTT18=
EXTT19=
EXTT20=
EXTT21=
PLAYORDER=
